<?xml version="1.0" standalone="no"?>
<!DOCTYPE svg PUBLIC "-//W3C//DTD SVG 20010904//EN"
 "http://www.w3.org/TR/2001/REC-SVG-20010904/DTD/svg10.dtd">
<svg version="1.0" xmlns="http://www.w3.org/2000/svg"
 width="600.000000pt" height="600.000000pt" viewBox="0 0 600.000000 600.000000"
 preserveAspectRatio="xMidYMid meet">

<g transform="translate(0.000000,600.000000) scale(0.100000,-0.100000)">
<path fill="inherit" d="M3090 4710 c-63 -71 -121 -141 -129 -155 -9 -14 -34 -31 -56 -39
-206 -73 -263 -95 -347 -137 -126 -63 -285 -171 -462 -313 -428 -345 -706
-697 -710 -901 -1 -33 3 -72 7 -86 8 -26 3 -30 -135 -118 -83 -52 -183 -127
-238 -176 -52 -48 -125 -111 -161 -140 -86 -70 -109 -115 -109 -216 0 -112 24
-243 55 -295 30 -50 86 -95 148 -118 23 -9 617 -203 1321 -431 1398 -454 1346
-440 1444 -395 45 20 640 488 724 568 26 25 57 68 69 96 20 47 21 61 15 191
-8 171 -34 284 -77 338 -21 26 -26 38 -17 41 7 2 88 26 179 53 l165 48 355
-86 c354 -87 389 -92 389 -55 0 35 -65 292 -99 397 -59 174 -123 292 -218 399
l-40 45 32 120 c18 66 44 161 59 210 45 151 59 256 51 379 -7 114 -16 146 -40
146 -8 0 -105 -36 -215 -80 l-201 -80 -287 144 c-169 85 -334 161 -402 184
-63 22 -196 73 -295 115 -99 41 -219 87 -267 102 -78 24 -90 31 -110 64 -74
121 -237 311 -268 311 -9 0 -67 -57 -130 -130z m202 -45 c32 -37 84 -106 117
-154 l59 -86 93 -28 c52 -16 175 -62 274 -104 98 -42 229 -93 290 -114 60 -21
248 -107 416 -190 l306 -152 179 71 c98 40 185 72 192 72 18 0 16 -180 -3
-272 -9 -40 -33 -131 -55 -203 -35 -118 -80 -285 -80 -299 0 -4 24 -32 53 -64
96 -104 151 -199 207 -357 26 -74 90 -313 90 -336 0 -4 -108 20 -240 54 -224
55 -240 61 -225 77 19 21 19 34 -1 50 -20 18 -100 2 -294 -57 -246 -75 -375
-104 -497 -110 -181 -10 -251 24 -261 126 -8 85 12 141 79 218 61 70 69 92 44
113 -22 18 -46 4 -100 -60 -31 -38 -55 -58 -65 -55 -14 4 -600 149 -1257 310
l-272 67 -88 -35 c-245 -98 -493 -142 -647 -117 -120 19 -154 56 -143 151 15
128 154 329 386 559 241 240 540 469 752 576 49 24 154 66 234 94 164 56 185
65 185 85 0 25 188 247 205 242 6 -2 36 -34 67 -72z m-198 -1746 c407 -100
744 -184 747 -188 6 -5 -9 -130 -16 -139 -2 -3 -1633 416 -1659 426 -14 6 4
16 75 44 52 19 98 36 103 37 4 0 342 -81 750 -180z m-1602 62 c29 -11 106 -36
171 -56 64 -19 117 -37 117 -39 0 -2 -42 -38 -93 -80 l-94 -75 -197 65 c-109
37 -195 69 -192 72 15 14 212 132 223 132 6 0 35 -9 65 -19z m767 -41 l44 -12
-54 -54 c-29 -30 -58 -54 -64 -54 -21 0 -285 84 -285 91 0 15 77 68 110 77 27
7 55 3 120 -14 47 -12 105 -28 129 -34z m-389 15 c0 -14 -45 -25 -73 -19 l-32
8 35 7 c46 8 70 10 70 4z m633 -77 c70 -18 127 -35 127 -38 0 -3 -26 -33 -57
-67 l-58 -62 -130 41 c-71 23 -132 43 -134 45 -7 5 102 113 114 113 5 0 67
-14 138 -32z m-497 -59 l142 -43 -80 -88 c-45 -48 -82 -88 -84 -88 -1 0 -77
25 -168 56 l-166 56 97 79 c53 44 101 78 107 76 6 -3 75 -24 152 -48z m-657
-59 c105 -36 190 -68 188 -71 -5 -15 -210 -179 -222 -179 -8 0 -78 21 -157 46
-79 25 -159 50 -178 56 -19 6 -39 14 -43 18 -8 7 203 201 214 197 4 -1 93 -31
198 -67z m1463 39 c54 -13 98 -26 98 -29 0 -3 -23 -37 -50 -75 -34 -47 -56
-69 -68 -67 -24 5 -206 63 -211 67 -8 8 112 136 123 132 6 -2 55 -15 108 -28z
m-399 -107 c32 -10 58 -22 59 -27 2 -13 -143 -175 -156 -175 -9 0 -205 63
-265 85 -8 3 14 35 68 94 l82 89 77 -24 c42 -13 103 -32 135 -42z m707 27 c69
-18 127 -33 128 -35 3 -2 -87 -141 -104 -163 -3 -3 -275 78 -282 84 -2 2 21
37 50 78 34 48 58 74 68 72 8 -2 71 -18 140 -36z m-1345 -102 c88 -30 158 -58
157 -63 -2 -5 -42 -49 -89 -98 l-86 -88 -71 21 c-39 12 -125 39 -190 59 l-119
38 109 91 c60 51 114 92 119 92 6 1 82 -23 170 -52z m1661 21 c68 -18 124 -36
124 -40 0 -15 -95 -178 -103 -178 -5 0 -67 18 -137 41 l-129 41 56 84 c31 46
58 84 61 84 2 0 60 -15 128 -32z m-763 -27 c48 -15 90 -31 93 -34 9 -9 -129
-198 -141 -194 -5 3 -63 22 -128 43 -64 21 -116 42 -115 46 2 3 36 45 77 93
84 97 66 94 214 46z m-1598 -82 c104 -33 191 -61 193 -63 2 -3 -176 -153 -220
-184 -16 -12 -30 -10 -98 13 -116 39 -165 104 -146 197 7 36 51 98 69 98 7 0
97 -27 202 -61z m2671 30 c89 -22 96 -25 109 -55 7 -17 29 -44 48 -60 l36 -28
-41 -58 c-23 -32 -46 -58 -52 -58 -12 0 -327 97 -331 102 -1 2 21 45 49 96 39
70 55 91 69 88 9 -2 60 -15 113 -27z m-777 -41 c75 -23 137 -43 139 -44 7 -5
-132 -204 -142 -204 -17 0 -260 81 -269 90 -8 7 121 200 132 200 3 0 66 -19
140 -42z m-821 -29 c73 -24 131 -47 130 -51 -2 -4 -38 -47 -81 -97 l-77 -89
-78 24 c-42 13 -110 34 -149 47 -40 12 -73 26 -73 30 0 14 174 188 184 184 6
-2 71 -24 144 -48z m1182 -84 c47 -15 90 -28 97 -30 8 -3 -10 -44 -49 -112
-33 -59 -61 -109 -62 -110 -5 -6 -286 92 -286 99 0 5 30 53 66 107 l66 99 41
-13 c23 -7 80 -25 127 -40z m-1767 -30 c81 -25 147 -49 147 -53 0 -4 -45 -52
-99 -106 l-99 -99 -206 64 c-113 35 -206 67 -206 70 0 3 52 49 115 102 l115
96 43 -14 c23 -8 108 -35 190 -60z m911 5 c66 -22 121 -42 124 -44 3 -4 -127
-197 -132 -196 -1 0 -67 22 -148 48 l-147 47 81 93 c44 50 85 92 92 92 7 0 65
-18 130 -40z m1604 3 c35 -3 110 0 168 7 100 13 106 12 132 -7 40 -30 72 -91
72 -141 0 -48 -35 -126 -53 -119 -7 2 -119 38 -249 78 -131 41 -238 77 -238
81 0 4 17 32 38 62 25 38 42 54 52 50 8 -3 43 -8 78 -11z m-423 -79 c82 -25
153 -49 158 -53 5 -5 -108 -185 -139 -220 -2 -2 -73 20 -158 50 -150 51 -155
54 -143 73 7 12 35 60 62 109 27 48 53 87 59 87 6 0 78 -21 161 -46z m-860
-33 c77 -27 139 -54 137 -60 -6 -27 -117 -181 -127 -177 -6 2 -72 23 -146 46
-74 23 -135 43 -137 45 -2 2 130 196 133 195 0 0 63 -22 140 -49z m-903 -327
c1860 -589 1653 -527 1729 -522 47 4 80 13 108 29 47 28 731 647 732 663 1 6
5 0 9 -14 15 -45 11 -188 -5 -228 -22 -52 -37 -66 -250 -236 -416 -333 -488
-388 -520 -402 -78 -32 -67 -36 -1440 411 -718 233 -1321 433 -1339 445 -58
35 -105 126 -106 203 0 16 3 16 29 -4 17 -13 446 -153 1053 -345z m38 315 c69
-22 131 -42 138 -44 9 -3 -19 -42 -78 -110 -51 -58 -96 -105 -100 -105 -8 0
-274 82 -309 95 -10 4 18 38 90 111 70 70 109 102 119 98 8 -3 71 -23 140 -45z
m2192 -101 c131 -40 237 -75 237 -78 0 -3 -52 -50 -114 -106 l-113 -100 -205
68 -205 69 75 110 c41 60 77 109 81 109 4 1 114 -32 244 -72z m-975 -5 l142
-48 -51 -92 c-29 -51 -57 -93 -63 -93 -11 0 -298 90 -303 95 -5 5 118 185 126
185 4 0 71 -21 149 -47z m-859 -8 c78 -25 142 -48 142 -51 0 -2 -34 -53 -76
-113 l-76 -108 -160 51 c-88 28 -160 55 -160 60 0 10 171 206 180 206 4 0 72
-20 150 -45z m1351 -161 c3 -2 -89 -142 -110 -168 -6 -7 -140 30 -286 79 -11
4 22 72 83 172 l14 22 148 -51 c81 -28 149 -52 151 -54z m-1002 51 c78 -25
143 -49 143 -52 0 -6 -141 -223 -144 -223 -21 3 -298 97 -299 101 -2 7 145
218 152 219 2 0 69 -20 148 -45z m363 -116 l158 -50 -60 -107 c-33 -59 -64
-111 -68 -115 -6 -7 -325 86 -338 98 -4 3 141 224 146 225 2 0 75 -23 162 -51z
m1080 -87 c0 -4 -36 -40 -79 -79 l-79 -73 -164 51 c-90 28 -167 55 -171 59 -5
4 17 46 48 93 l57 85 194 -65 c107 -36 194 -68 194 -71z m-726 -24 c72 -23
132 -43 134 -44 3 -2 -128 -203 -144 -223 -6 -6 -265 80 -262 87 18 43 125
222 132 222 5 0 68 -19 140 -42z m489 -154 c15 -4 27 -10 27 -14 0 -13 -140
-132 -178 -152 -50 -25 -118 -23 -218 8 l-83 25 75 113 75 114 137 -44 c75
-25 149 -47 165 -50z"/>
<path fill="inherit" d="M2633 3720 c-86 -52 -54 -190 44 -190 74 0 119 51 110 124 -11 77
-84 109 -154 66z"/>
<path fill="inherit" d="M2920 3565 c-18 -22 -5 -59 35 -93 41 -37 94 -49 150 -34 34 9 41 8
49 -6 35 -64 118 -96 203 -81 56 11 78 29 69 57 -9 27 -28 33 -69 20 -41 -12
-100 -4 -117 17 -7 8 -18 32 -25 52 -15 44 -46 54 -94 29 -31 -17 -89 -21
-106 -8 -6 4 -18 19 -28 35 -19 30 -48 35 -67 12z"/>
<path fill="inherit" d="M3902 3324 c-26 -18 -47 -55 -57 -101 -10 -48 28 -83 90 -83 65 0 85
23 85 98 0 72 -18 102 -63 102 -18 0 -43 -7 -55 -16z"/>
</g>
</svg>
